<svg id="Warstwa_1" data-name="Warstwa 1" xmlns="http://www.w3.org/2000/svg" viewBox="0 0 419.33 419.33"><defs><style>.cls-1,.cls-2{fill:#00628b;}.cls-2{fill-rule:evenodd;}</style></defs><path class="cls-1" d="M1124,473l-1.87-4.44,10.24-1.64L1124,473Zm-6.61,11,3-1.25-.7-1.67,16.27-12.51-2.06-4.91-20.34,2.85-.68-1.61-3,1.24,1.74,4.15,7.38-1.23,2.46,5.84-6,4.47,2,4.63Z" transform="translate(-750 -330)"/><path class="cls-1" d="M1108.66,463.69l2.79-1.6-1-1.7,4.84-2.78c2.26-1.29,2.86-3.46,1.66-5.56l-1.15-2,8.14.48,1.34,2.33,2.81-1.61-2.27-4-12-.18,9-5.16-2.81-4.89-2.81,1.62,1,1.69-14.4,8.28-1-1.7-2.79,1.6,2.81,4.89,8.66-5,2.39,4.16c.49.86.17,1.52-.92,2.15l-7.05,4,2.81,4.89Z" transform="translate(-750 -330)"/><path class="cls-1" d="M1100.86,442.6l4.05-3c2.1-1.53,2.46-3.71,1-5.67l-2.81-3.84c-.59-.81-.31-1.52.7-2.25l2.16-1.59c1-.75,1.75-.77,2.34,0l2.81,3.85-2.38,1.74,2.14,2.92,5-3.65-5.58-7.64c-1.44-2-3.66-2.29-5.76-.75l-3.79,2.77c-2.1,1.53-2.46,3.75-1,5.71l2.79,3.82c.59.8.34,1.5-.7,2.26l-2.38,1.74c-1,.74-1.78.79-2.36,0l-3.07-4.2,2.87-2.11-2.22-3-5.47,4,6,8.14c1.43,2,3.64,2.26,5.72.74Z" transform="translate(-750 -330)"/><path class="cls-1" d="M1101.51,417.6l2.34-2.26-3.74-3.86-9.78,9.45a22.48,22.48,0,0,0-2.32,2.64l6.24-18.17-4-4.18-2.33,2.25,1.36,1.41-12,11.54-1.36-1.41-2.32,2.24,3.74,3.86,9.77-9.43a25.47,25.47,0,0,0,2.36-2.68l-6,18.44,2.43,2.52,14.26-13.77,1.36,1.41Zm3.13-10.82-2.52-2.6-5,1.54,2,2.08,5.56-1Z" transform="translate(-750 -330)"/><path class="cls-1" d="M1072.11,415.88l2-2.49-1.4-1.15,8.5-18.68-4.11-3.37-16.64,12.05-1.35-1.11-2,2.49,3.49,2.85,5.93-4.55,4.92,4-3.23,6.76,3.9,3.18Zm.7-12.78-3.73-3.05,8.27-6.25-4.54,9.3Z" transform="translate(-750 -330)"/><path class="cls-1" d="M1066.78,386.16l1.7-2.77-4.59-2.8-7.1,11.61a24.06,24.06,0,0,0-1.57,3.14l1.46-19.16-5-3-1.69,2.77,1.67,1L1043,391.12l-1.67-1-1.67,2.75,4.58,2.8,7.08-11.59a23.46,23.46,0,0,0,1.61-3.19l-1.18,19.37,3,1.82,10.33-16.91,1.67,1Z" transform="translate(-750 -330)"/><polygon class="cls-1" points="286.69 61.2 289.69 54.68 286.43 53.17 284.77 56.78 277.95 53.64 294.73 42.76 295.97 40.08 282.27 33.77 279.3 40.24 282.58 41.76 284.21 38.23 290.68 41.22 273.87 52.02 272.63 54.73 286.69 61.2 286.69 61.2"/><path class="cls-1" d="M1017.41,377.32c-.4,1.19-1,1.67-1.91,1.35l-4.15-1.41c-.94-.32-1.12-1.06-.72-2.25l4.14-12.16c.41-1.21,1-1.63,1.93-1.31l4.14,1.41c.94.31,1.12,1,.7,2.2l-4.13,12.17Zm3.22,2.08,4.72-13.91c.83-2.46-.14-4.49-2.44-5.27l-6.2-2.1c-2.29-.78-4.3.23-5.14,2.69l-4.72,13.9a3.83,3.83,0,0,0,2.44,5.25l6.2,2.1a3.83,3.83,0,0,0,5.14-2.66Z" transform="translate(-750 -330)"/><path class="cls-1" d="M1001.92,362.36c-.25,1.22-.77,1.74-1.75,1.54l-4.63-.94,1.31-6.48,4.64.94c1,.2,1.26.85,1,2.11l-.57,2.83Zm3.57.9.79-3.89c.52-2.54-.68-4.43-3.06-4.91L992,352.18l-.65,3.18,1.92.39L989.94,372l-1.92-.39-.64,3.15,7.65,1.55.64-3.15-2.12-.43,1.38-6.79,5.15,1c2.72.55,4.82-.84,5.41-3.76Z" transform="translate(-750 -330)"/><path class="cls-1" d="M964.65,362.32l-4.82-.06,2.58-10,2.24,10.1Zm7.4,10.45,0-3.22-1.81,0-5-19.92-5.31-.07-5.52,19.78-1.76,0,0,3.21,4.5.06,1.82-7.25,6.34.08,1.69,7.3,5,.07Z" transform="translate(-750 -330)"/><path class="cls-1" d="M950.43,372.59l-.35-3.19-2,.21-.61-5.54c-.29-2.59-2-4-4.44-3.75l-2.29.25,3.69-7.27,2.67-.29-.35-3.22-4.53.5-5,11L936.14,351l-5.6.62.35,3.22,2-.21,1.81,16.51-1.94.21.35,3.2,5.61-.62-1.1-9.93,4.76-.53c1-.11,1.47.46,1.6,1.71l.89,8.07,5.61-.62Z" transform="translate(-750 -330)"/><polygon class="cls-1" points="180.14 45.15 179.51 42 177.56 42.39 174.31 26.1 176.25 25.71 175.62 22.53 168.14 24.02 168.78 27.2 170.7 26.82 173.95 43.11 172.03 43.49 172.66 46.64 180.14 45.15 180.14 45.15"/><path class="cls-1" d="M914.1,358.19l-1-3.1L908,356.67l4,13a24.32,24.32,0,0,0,1.31,3.26l-13.38-13.78-5.55,1.71,1,3.1,1.87-.58,4.88,15.88-1.87.57.95,3.07,5.14-1.58-4-13A23.88,23.88,0,0,0,901,365l13.72,13.71,3.35-1-5.83-19,1.88-.58Z" transform="translate(-750 -330)"/><polygon class="cls-1" points="148.05 54.19 146.69 51.28 144.92 52.1 137.89 37.02 139.66 36.2 138.29 33.26 133.18 35.64 137.45 44.79 131.22 47.69 126.96 38.54 121.85 40.92 123.22 43.86 124.99 43.04 132.02 58.12 130.25 58.95 131.61 61.86 136.72 59.47 132.46 50.34 138.68 47.44 142.94 56.57 148.05 54.19 148.05 54.19"/><path class="cls-1" d="M878.38,393.57l-3.77-6.24L871.83,389l2.11,3.5-4.87,2.95c-.85.51-1.54.17-2.19-.91l-6.64-11c-.66-1.1-.61-1.81.24-2.32l4.88-3,2.06,3.42L870.2,380l-3.74-6.2L857.88,379c-2.08,1.25-2.6,3.44-1.25,5.67l7.59,12.57a3.82,3.82,0,0,0,5.58,1.51l8.58-5.19Z" transform="translate(-750 -330)"/><polygon class="cls-1" points="113.45 72.99 108.94 67.21 106.36 69.22 108.89 72.47 103.3 76.84 98.89 71.2 104.69 66.67 102.79 64.23 96.98 68.76 93.07 63.75 98.48 59.53 100.89 62.6 103.42 60.62 99.02 54.99 86.63 64.67 88.63 67.22 90.17 66.02 100.4 79.11 98.86 80.31 100.83 82.85 113.45 72.99 113.45 72.99"/><polygon class="cls-1" points="87.21 72.67 82.67 68.04 69.93 80.55 74.47 85.17 76.91 82.78 74.64 80.47 77.25 77.91 88.88 89.76 87.36 91.26 89.61 93.55 95.33 87.94 93.07 85.65 91.53 87.16 79.89 75.31 82.5 72.75 84.77 75.06 87.21 72.67 87.21 72.67"/><polygon class="cls-1" points="84.48 98.86 82.03 96.78 80.74 98.29 68.09 87.53 69.37 86.02 66.9 83.91 61.96 89.72 64.43 91.82 65.7 90.33 78.36 101.09 77.09 102.58 79.54 104.67 84.48 98.86 84.48 98.86"/><polygon class="cls-1" points="77.21 107.57 70.81 103.08 68.89 105.81 72.67 108.46 69.15 113.48 55.55 103.95 56.77 102.2 54.12 100.34 49.66 106.7 52.31 108.56 53.43 106.96 67.04 116.5 65.91 118.1 68.55 119.94 77.21 107.57 77.21 107.57"/><path class="cls-1" d="M810.3,453.72c1.11.59,1.5,1.23,1,2.11l-2.06,3.87c-.46.87-1.22.93-2.33.34l-11.34-6c-1.13-.6-1.46-1.23-1-2.11l2.06-3.87c.46-.88,1.16-.94,2.29-.34l11.34,6Zm2.57-2.83-13-6.9c-2.29-1.22-4.45-.58-5.59,1.56l-3.07,5.78c-1.14,2.14-.46,4.29,1.83,5.51l13,6.89a3.81,3.81,0,0,0,5.56-1.57l3.08-5.78a3.81,3.81,0,0,0-1.81-5.49Z" transform="translate(-750 -330)"/><path class="cls-1" d="M792.52,466.91c1.16.45,1.59,1.06,1.23,2L792,473.3l-6.17-2.39,1.71-4.41c.36-.93,1-1.1,2.25-.63l2.69,1Zm1.49-3.37-3.7-1.43c-2.42-.94-4.47-.08-5.35,2.18L780.8,475l3,1.18.71-1.83,15.48,6-.71,1.83,3,1.16,2.82-7.27-3-1.17-.78,2-6.45-2.51,1.9-4.9c1-2.59,0-4.89-2.79-6Z" transform="translate(-750 -330)"/><polygon class="cls-1" points="379.08 190.22 375.84 190.4 376.09 194.66 385.8 198.6 376.61 203.67 376.88 208.28 380.12 208.09 380 206.14 389.29 200.39 396.29 199.99 396.41 202.09 399.62 201.9 399.16 194.09 395.95 194.27 396.07 196.31 388.9 196.73 379.19 192.17 379.08 190.22 379.08 190.22"/><path class="cls-1" d="M1149.85,542.27l-13.22-.56-.31,7.33,3.24.13.16-3.79,6.77.28-.23,5.7c0,1-.7,1.37-2,1.32l-12.83-.54c-1.28,0-1.85-.49-1.81-1.48l.24-5.69,3.78.16.14-3.3-7-.3-.42,10.08c-.11,2.42,1.43,4.06,4,4.17l14.67.61a3.82,3.82,0,0,0,4.34-3.82l.43-10.3Z" transform="translate(-750 -330)"/><path class="cls-1" d="M1143,565.44c1.24.2,1.81.68,1.65,1.66l-.69,4.33c-.16,1-.86,1.28-2.1,1.08l-12.68-2c-1.26-.21-1.78-.7-1.62-1.68l.69-4.33c.16-1,.8-1.26,2.06-1.06l12.69,2Zm1.51-3.51L1130,559.6c-2.57-.41-4.4.89-4.79,3.29l-1,6.46c-.39,2.39.95,4.21,3.52,4.62l14.49,2.32a3.82,3.82,0,0,0,4.76-3.29l1-6.46a3.82,3.82,0,0,0-3.49-4.61Z" transform="translate(-750 -330)"/><polygon class="cls-1" points="395.23 251.72 387.66 249.72 386.81 252.94 391.27 254.12 389.7 260.05 373.64 255.8 374.19 253.74 371.05 252.91 369.06 260.42 372.2 261.25 372.7 259.36 388.76 263.61 388.25 265.5 391.36 266.32 395.23 251.72 395.23 251.72"/><path class="cls-1" d="M1133.13,604.11c1.17.45,1.64,1,1.29,2l-1.56,4.09c-.35.93-1.1,1.09-2.27.64l-12-4.55c-1.2-.46-1.6-1-1.25-2l1.56-4.09c.35-.93,1-1.08,2.23-.63l12,4.56Zm2.19-3.14-13.73-5.21c-2.43-.92-4.49,0-5.35,2.25l-2.32,6.12c-.86,2.27.08,4.32,2.51,5.24l13.73,5.21a3.82,3.82,0,0,0,5.32-2.26l2.33-6.12a3.83,3.83,0,0,0-2.49-5.23Z" transform="translate(-750 -330)"/><path class="cls-1" d="M1113.94,612.28l-2.84-1.56-2.59,4.71,11.92,6.55a22.64,22.64,0,0,0,3.21,1.43l-19.2-.58-2.8,5.1,2.84,1.56,1-1.72,14.55,8-.94,1.72,2.82,1.55,2.59-4.72-11.9-6.53a23.7,23.7,0,0,0-3.27-1.46l19.4.29,1.69-3.08L1113,614l.94-1.72Z" transform="translate(-750 -330)"/><polygon class="cls-1" points="368.38 314.72 365.81 312.81 364.64 314.38 351.28 304.45 352.45 302.88 349.85 300.95 346.48 305.48 354.59 311.5 350.49 317.01 342.39 310.99 339.02 315.51 341.63 317.45 342.8 315.88 356.15 325.8 354.99 327.37 357.56 329.29 360.93 324.76 352.84 318.75 356.93 313.24 365.02 319.25 368.38 314.72 368.38 314.72"/><path class="cls-1" d="M1103.39,664.23l-5.4-4.91-2.19,2.4,3,2.75-3.83,4.22c-.67.73-1.42.6-2.35-.24l-9.51-8.64c-1-.86-1.1-1.56-.44-2.29l3.83-4.22,3,2.69,2.18-2.4-5.36-4.87-6.73,7.42c-1.64,1.79-1.51,4,.42,5.79l10.87,9.87a3.82,3.82,0,0,0,5.78-.15l6.74-7.42Z" transform="translate(-750 -330)"/><polygon class="cls-1" points="339.26 348.95 334.5 343.38 332.01 345.51 334.69 348.64 329.29 353.25 324.64 347.81 330.24 343.03 328.22 340.67 322.63 345.46 318.5 340.63 323.72 336.17 326.25 339.13 328.7 337.05 324.05 331.61 312.11 341.83 314.21 344.29 315.7 343.02 326.5 355.64 325.01 356.92 327.1 359.36 339.26 348.95 339.26 348.95"/><polygon class="cls-1" points="313.43 348.99 309.83 343.6 294.99 353.51 298.59 358.9 301.43 357 299.63 354.31 302.67 352.28 311.89 366.09 310.12 367.28 311.91 369.95 318.56 365.5 316.78 362.83 314.98 364.03 305.75 350.22 308.79 348.19 310.59 350.88 313.43 348.99 313.43 348.99"/><polygon class="cls-1" points="286.52 366.14 283.63 359.61 269.71 365.76 271.02 368.73 272.81 367.94 279.53 383.13 277.74 383.92 279.04 386.86 286.23 383.68 284.93 380.74 282.89 381.64 280.06 375.23 287.03 372.14 285.72 369.18 278.75 372.26 276.18 366.45 281.76 363.98 283.34 367.55 286.52 366.14 286.52 366.14"/><polygon class="cls-1" points="239.92 377.46 239.51 374.24 235.28 374.78 232.02 384.74 226.33 375.93 221.75 376.51 222.16 379.73 224.1 379.48 230.48 388.35 231.36 395.3 229.28 395.56 229.69 398.75 237.45 397.76 237.04 394.57 235.02 394.83 234.1 387.71 237.98 377.71 239.92 377.46 239.92 377.46"/><polygon class="cls-1" points="219.73 383.06 219.67 376.58 201.82 376.72 201.88 383.2 205.29 383.18 205.27 379.94 208.92 379.91 209.06 396.52 206.92 396.54 206.95 399.75 214.95 399.68 214.93 396.47 212.77 396.49 212.63 379.88 216.28 379.85 216.31 383.09 219.73 383.06 219.73 383.06"/><polygon class="cls-1" points="197.11 399.4 197.39 396.2 195.41 396.03 196.86 379.48 198.84 379.65 199.13 376.42 191.53 375.76 191.25 378.99 193.2 379.16 191.75 395.71 189.8 395.54 189.52 398.74 197.11 399.4 197.11 399.4"/><path class="cls-1" d="M934.07,724.05l.92-4.94c.48-2.56-.76-4.39-3.14-4.84l-4.68-.87c-1-.19-1.26-.89-1-2.12l.49-2.64c.24-1.26.75-1.76,1.72-1.58l4.68.88-.54,2.89,3.56.67,1.14-6.08-9.3-1.74c-2.39-.45-4.23.84-4.71,3.39l-.86,4.62c-.48,2.55.78,4.42,3.16,4.87l4.65.87c1,.18,1.27.86,1,2.12l-.54,2.9c-.23,1.24-.75,1.79-1.73,1.61l-5.11-.95.65-3.51-3.7-.69-1.25,6.66,9.91,1.85c2.39.45,4.2-.85,4.68-3.37Z" transform="translate(-750 -330)"/><path class="cls-1" d="M915.58,724.89l.92-3.09-1.91-.56,1.26-4.26c.71-2.41.3-3.78-1.83-5.05,2.1.32,3.34-.35,3.87-2.17l1.05-3.55c.74-2.49-.29-4.47-2.61-5.16l-11-3.26-.92,3.11,1.87.56-4.71,15.93-1.87-.56-.92,3.08,5.41,1.6,2.88-9.72,4.62,1.37c1,.29,1.13,1,.78,2.21l-2.34,7.9,5.46,1.62Zm-1.24-16.09c-.36,1.2-.92,1.67-1.88,1.39l-4.53-1.34,1.87-6.35,4.54,1.35c.95.28,1.18.95.82,2.18l-.82,2.77Z" transform="translate(-750 -330)"/><polygon class="cls-1" points="143.31 388.06 146.21 381.33 143.2 380.03 141.58 383.82 135.05 381.02 137.88 374.44 144.65 377.35 145.87 374.5 139.1 371.59 141.61 365.75 147.92 368.47 146.38 372.05 149.33 373.32 152.15 366.75 137.71 360.55 136.43 363.53 138.23 364.3 131.67 379.56 129.87 378.79 128.6 381.74 143.31 388.06 143.31 388.06"/><polygon class="cls-1" points="133.53 362.29 135.14 359.47 130.85 357.02 117.72 370.81 122.91 352.48 118.65 350.05 117.04 352.86 118.74 353.83 113.49 373.67 117.38 375.89 131.83 361.31 133.53 362.29 133.53 362.29"/><polygon class="cls-1" points="102.95 367.09 104.82 364.48 103.21 363.32 112.88 349.82 114.5 350.97 116.39 348.34 110.19 343.9 108.3 346.53 109.89 347.67 100.21 361.17 98.62 360.03 96.75 362.65 102.95 367.09 102.95 367.09"/><path class="cls-1" d="M855.54,674.59l2.12-2.45-4-3.52-8.93,10.27a22.89,22.89,0,0,0-2.07,2.84l4.62-18.65-4.39-3.81-2.13,2.45,1.48,1.28L831.3,675.54l-1.48-1.28-2.11,2.43,4.06,3.52L840.68,670a24.06,24.06,0,0,0,2.11-2.88L838.41,686l2.65,2.3,13-15,1.48,1.28Z" transform="translate(-750 -330)"/><path class="cls-1" d="M838.38,659.5l2.44-2.14-3.57-4.06-13.48,11.87c-.94.83-1.69,1-2.35.2l-3-3.46c-.66-.75-.43-1.46.52-2.29l13.47-11.86-3.75-4.26-2.43,2.15,1.31,1.49L816.3,657c-2.26,2-2.45,4.64-.59,6.75l3.38,3.83c1.87,2.13,4.53,2.28,6.79.29L837.07,658l1.31,1.49Z" transform="translate(-750 -330)"/><path class="cls-1" d="M817.68,634l2.81-1.63-2.7-4.65L806,634.51a22.64,22.64,0,0,0-2.88,2l10.41-16.15-2.92-5L807.82,617l1,1.69L794.44,627l-1-1.69-2.78,1.61,2.7,4.65,11.74-6.82a24.9,24.9,0,0,0,2.93-2L797.8,639.18l1.76,3,17.14-10,1,1.69Z" transform="translate(-750 -330)"/><path class="cls-1" d="M795.12,612.24l-1.89-4.44,10.22-1.69-8.33,6.13Zm-6.56,11,3-1.26-.71-1.67L807,607.7l-2.09-4.89-20.32,3-.69-1.61-3,1.26,1.77,4.14,7.37-1.27,2.48,5.83-6,4.5,2,4.62Z" transform="translate(-750 -330)"/><path class="cls-1" d="M799,596.7l3.11-.91-1.5-5.16-13.06,3.81a23.56,23.56,0,0,0-3.28,1.26l14-13.18-1.63-5.58-3.11.91.55,1.88-16,4.65-.54-1.88-3.09.9,1.51,5.16,13-3.8a25.06,25.06,0,0,0,3.34-1.28L778.47,597l1,3.36,19-5.55.55,1.88Z" transform="translate(-750 -330)"/><polygon class="cls-1" points="23.16 247.33 30.25 246.21 29.69 242.66 25.77 243.28 24.6 235.87 42.96 243.78 45.88 243.32 43.52 228.43 36.49 229.55 37.05 233.13 40.88 232.52 42 239.56 23.68 231.57 20.74 232.04 23.16 247.33 23.16 247.33"/><path class="cls-1" d="M775,552.46c-1.25.06-1.91-.29-2-1.28l-.22-4.38c0-1,.58-1.43,1.83-1.49l12.83-.63c1.28-.07,1.89.31,1.93,1.31l.22,4.37c0,1-.52,1.4-1.8,1.47l-12.83.63Zm-.75,3.75,14.66-.72c2.6-.13,4.13-1.78,4-4.21l-.32-6.53c-.12-2.42-1.8-3.92-4.4-3.79l-14.66.72a3.82,3.82,0,0,0-4,4.2l.32,6.54a3.82,3.82,0,0,0,4.37,3.79Z" transform="translate(-750 -330)"/><path class="cls-1" d="M784.57,533.07c-1.25-.1-1.83-.55-1.75-1.54l.36-4.72,6.6.5-.36,4.72c-.08,1-.69,1.36-2,1.26l-2.88-.22Zm-.46,3.65,4,.31c2.59.2,4.31-1.22,4.5-3.64l.88-11.45-3.23-.25-.16,1.95-16.56-1.27.15-2-3.2-.25-.6,7.78,3.2.24.17-2.15,6.9.53-.4,5.24c-.21,2.77,1.43,4.69,4.39,4.91Z" transform="translate(-750 -330)"/><path class="cls-1" d="M1019,715c.4,1.19.24,1.92-.7,2.23l-4.16,1.38c-1,.31-1.54-.17-1.93-1.37l-4-12.19c-.4-1.22-.19-1.9.75-2.21l4.16-1.38c.94-.31,1.49.12,1.89,1.34l4,12.2Zm3.82-.28-4.61-13.94c-.82-2.47-2.82-3.5-5.12-2.74l-6.22,2.06c-2.3.76-3.29,2.78-2.47,5.25l4.61,13.94a3.82,3.82,0,0,0,5.11,2.71l6.21-2.06a3.82,3.82,0,0,0,2.49-5.22Z" transform="translate(-750 -330)"/><path class="cls-2" d="M1084.28,559.3a127.12,127.12,0,0,0,1.58-19.64c0-3.21-.14-6.46-.42-9.87l21.75-7.07,1.68-.54-.23-1.74a149,149,0,0,0-13-44.7l-.8-1.69-1.77.58-21.37,6.95a126.72,126.72,0,0,0-17.73-25.75l13.35-18.38,1-1.45-1.25-1.28a150.21,150.21,0,0,0-37.27-27.86l-1.62-.86-1.08,1.49-13.26,18.25a125.13,125.13,0,0,0-30.43-9.94V391.37l-1.81-.26a151.33,151.33,0,0,0-46.53.41l-1.77.3v24.49a125.41,125.41,0,0,0-29.72,10.4l-13.22-18.19-1.1-1.51-1.63.89a150.46,150.46,0,0,0-36.87,28.42l-1.21,1.28,1,1.42L864,457.51a125.94,125.94,0,0,0-16.68,24.81L826,475.38l-1.79-.57-.79,1.7a149.32,149.32,0,0,0-12.78,44.78l-.21,1.73,1.66.54,21.79,7.08c-.23,3.22-.35,6.2-.35,9A126.38,126.38,0,0,0,835,558.48l-21.38,6.94-1.78.57.35,1.84a149.07,149.07,0,0,0,15.71,43.83l.84,1.53,1.67-.54,21.75-7.07a126.82,126.82,0,0,0,15.94,20.76l-13.26,18.25-1.08,1.49,1.32,1.28a150.31,150.31,0,0,0,38,26.89l1.6.79,1.05-1.45,13.37-18.4A125,125,0,0,0,933.32,663V687.5l1.77.3a150.94,150.94,0,0,0,46.53.42l1.81-.26V663.53a125.51,125.51,0,0,0,24.87-7.45l13.43,18.48,1,1.42,1.59-.76a150,150,0,0,0,38.39-26.33l1.35-1.28-1.09-1.5-13.21-18.18a126.59,126.59,0,0,0,17-21.62l21.78,7.08,1.66.53.84-1.52a149.23,149.23,0,0,0,16-43.75l.35-1.84-1.78-.57-21.35-6.94Zm3.92,49.51-21.65-7-1.6-.52-.86,1.43a123.09,123.09,0,0,1-18.55,23.54l-1.29,1.28,1.07,1.46,13.14,18.09a146.18,146.18,0,0,1-34.37,23.56l-13.35-18.39-1-1.37-1.56.68A121.32,121.32,0,0,1,981,659.7l-1.75.3v24.26a146.38,146.38,0,0,1-19.49,1.33,148.38,148.38,0,0,1-22.16-1.71V659.57l-1.7-.34a120.86,120.86,0,0,1-26.59-8.59l-1.58-.71-1,1.4-13.3,18.3a145.94,145.94,0,0,1-34-24.06l13.2-18.16,1-1.44-1.25-1.28A123.14,123.14,0,0,1,854.92,602l-.86-1.45-1.61.52-21.64,7a145,145,0,0,1-14.07-39.21L838,562l1.73-.56-.3-1.79a123.79,123.79,0,0,1-1.65-19.94c0-3.2.15-6.58.47-10.34l.14-1.68-1.6-.51-21.68-7A145,145,0,0,1,826.54,480l21.23,6.9,1.74.57.81-1.65a122,122,0,0,1,18-26.8l1.13-1.27-1-1.38L855.08,438a146.32,146.32,0,0,1,33-25.44l13.15,18.1,1.07,1.47,1.62-.83a120.76,120.76,0,0,1,31.94-11.18l1.7-.34V395.45a144.49,144.49,0,0,1,41.65-.39v24.26l1.75.31a120.91,120.91,0,0,1,32.65,10.67l1.6.79,1-1.45,13.2-18.15a146.35,146.35,0,0,1,33.35,24.94l-13.29,18.28-1,1.4,1.16,1.28a122,122,0,0,1,19.07,27.7l.81,1.63,1.73-.56,21.27-6.91a144.56,144.56,0,0,1,11.65,40l-21.64,7-1.62.52.16,1.69c.36,3.91.54,7.56.54,11.17a123,123,0,0,1-1.8,20.74l-.31,1.8,1.74.57,21.25,6.9a144.74,144.74,0,0,1-14.31,39.14Z" transform="translate(-750 -330)"/><path class="cls-2" d="M989,459.79c-3.46.78-6.21-.53-7.28-1.93s.32-5.68,1.5-5.46.1,1-.22,2.89.86,2.47.86,2.47c11-8.36,2.46-10.94,2.46-10.94,3-3.53,1.29-8.78,1.29-8.78-6.86,2.25-7,7.71-7,7.71-1.6-2.57-6-1-7.07,1.5s-.85,9.33-.85,9.33c4.39,1,3.42-4.82,5-5s2.58,5.36-4.92,6.75-9.44-2.89-10.29-5.25,1.93-4.4,2.57-1.18a6.32,6.32,0,0,0,3.21,4.4c-1-2.36,2.9-6,2.57-10.08s-7.28-1.92-7.28-1.92a7.35,7.35,0,0,0-.22-5.91,15.36,15.36,0,0,0-1.62-2.87v-3.92h3.15v-4.12h-3.15V425h-4.12v2.42h-3.15v4.12h3.15v4.07a15.94,15.94,0,0,0-1.52,2.72,7.39,7.39,0,0,0-.22,5.91s-7-2.15-7.28,1.92,3.53,7.72,2.57,10.08a6.34,6.34,0,0,0,3.22-4.4c.64-3.22,3.42-1.18,2.57,1.18s-2.79,6.64-10.29,5.25-6.53-7-4.92-6.75.64,6,5,5c0,0,.21-6.86-.86-9.33s-5.46-4.07-7.07-1.5c0,0-.11-5.46-7-7.71,0,0-1.72,5.25,1.28,8.78,0,0-8.57,2.58,2.47,10.94,0,0,1.18-.54.85-2.47s-1.39-2.68-.21-2.89,2.57,4.07,1.5,5.46-3.83,2.71-7.29,1.93c-7.63-1.71-2-13.82-12-15,0,0,5.34,12.93,11.76,20.68h59c6.41-7.75,11.75-20.68,11.75-20.68-10,1.18-4.36,13.29-12,15Z" transform="translate(-750 -330)"/><path class="cls-2" d="M981.4,499.58c-1.18-.14-3.12-.7-3.66-1.55a11.83,11.83,0,0,0,1-4.78,8,8,0,0,0-.75-3.51,4.27,4.27,0,0,0-2.48-2.62,5.69,5.69,0,0,0-2.84-.75,5.89,5.89,0,0,0-2.78,11.1l0,.06-2.14.18-.1.33a1.8,1.8,0,0,0-.09.58,1.86,1.86,0,0,0,.27,1,1.69,1.69,0,0,0,.64.54,1.79,1.79,0,0,0-.18.29c-.42,0-2.36.11-2.36.11l0,.45v.16a2.18,2.18,0,0,0,.6,1.56.88.88,0,0,1-.17.2h-1.71s-.81-.16-1.19-.22l-1.82-2.2a14.09,14.09,0,0,1-.55-3.5c0-1.77.62-2.24.62-2.25,1.51-.59,1.87-1.15,1.92-1.5a3.07,3.07,0,0,0,.38-1.36,2.72,2.72,0,0,0-.26-1.1,3,3,0,0,0-.58-.84v0a4.92,4.92,0,0,0-3.11-1.5c-.38,0-.86.07-1,.48a.53.53,0,0,1-1-.1,3.53,3.53,0,0,0-.8-1.67,1.7,1.7,0,0,0-.3-.23,3.93,3.93,0,0,0-4,.33,4.22,4.22,0,0,0-1.67,4.11l.13,1,.76-.76c1-1,3.31.78,4.25,1.62,0,.44-.29,5-.3,5.36-1.49,1.51-3.09,3.51-3.55,4.09l-1.27.23h-1.63a.88.88,0,0,1-.17-.2,2.15,2.15,0,0,0,.61-1.56.71.71,0,0,0,0-.16l0-.45s-1.93-.11-2.35-.11c-.06-.1-.1-.15-.18-.29a1.61,1.61,0,0,0,.64-.54,2.06,2.06,0,0,0,.18-1.57l-.09-.33-2.16-.18s0,0,0-.06a5.88,5.88,0,0,0-2.78-11.1,5.72,5.72,0,0,0-2.87.77A4.36,4.36,0,0,0,938,489.8a8.14,8.14,0,0,0-.71,3.44,11.86,11.86,0,0,0,1.05,4.79c-.54.85-2.49,1.41-3.67,1.55l-.57.07.14.58c.54,2.22,2.36,3,5.25,2.35a3.51,3.51,0,0,0,1.33-.73l.53.74c0,.35-.47,4.9-.47,4.9-.16,1.07-2.66,1.73-3.85,1.89l-.58.07.13.55c.56,2.24,2.4,3,5.26,2.37,1.62-.39,2.81-2.05,3.59-4.81a1.64,1.64,0,0,0,.16.18c-.09,1-.53,6.65-.76,8.25-.15,1.07-2.66,1.74-3.85,1.9l-.58.06.14.57c.56,2.22,2.36,3,5.25,2.35,3.25-.77,4.14-6.41,4.36-8.64V519l.67.09c0,.06,0,.1,0,.16s0,.24,0,.36c-.87,1.88-1.9,4.19-2.37,5.22a9.71,9.71,0,0,0-6,1.22l1.17,1.93a8.5,8.5,0,0,1,2.24-.84,6,6,0,0,0-1.66,2.46l2.18.6c.27-1,2.07-2.4,3.28-3.09a1.67,1.67,0,0,0,.28-.25,20.72,20.72,0,0,1,4.14-.17l.1-2.27c-1.31-.05-2.31,0-3.08,0l1.87-4.16.11-.06.77.46,1.73-.64a6.55,6.55,0,0,1,.37,2.67c0,.77-.06,1.73-.18,2.94a4.25,4.25,0,0,1-1.59,3.13c-1.84,1.3-4.6.7-4.63.69l-1-.19.42.92c.82,1.91,2,3,3.39,3.33a4.89,4.89,0,0,0,3.42-.8c0,.27-.06.54-.06.8a8,8,0,0,0,1.89,4.88l.38.43.37-.42a7.89,7.89,0,0,0,2-4.92,4.39,4.39,0,0,0-.08-.78,4.92,4.92,0,0,0,3.44.81c1.42-.28,2.55-1.42,3.4-3.33l.39-.92-1,.19s-2.8.61-4.63-.69a4.19,4.19,0,0,1-1.6-3.13c-.12-1.21-.18-2.17-.18-2.94a6.55,6.55,0,0,1,.37-2.67l1.73.64.55-.33,2,4.08c-.77,0-1.75-.05-3,0l.08,2.27a20,20,0,0,1,4.24.18.92.92,0,0,0,.19.24c1.2.69,3,2.14,3.28,3.09l2.19-.6a5.94,5.94,0,0,0-1.67-2.46,8.52,8.52,0,0,1,2.23.84l1.18-1.93a9.59,9.59,0,0,0-6-1.22l-2.3-4.73a2.11,2.11,0,0,0,.14-.85v-.16l.65-.09v-6.79c.25,2.23,1.13,7.87,4.37,8.64,2.87.69,4.68-.13,5.26-2.35l.13-.57-.59-.06c-1.18-.16-3.69-.83-3.84-1.9-.23-1.6-.66-7.23-.76-8.25a1,1,0,0,0,.15-.18c.8,2.76,2,4.42,3.58,4.81,2.89.68,4.71-.13,5.28-2.37l.14-.55-.58-.07c-1.2-.16-3.7-.82-3.86-1.89,0,0-.38-4-.47-4.9.11-.16.31-.41.54-.74a3.4,3.4,0,0,0,1.32.73c2.89.67,4.7-.13,5.25-2.35l.15-.58-.59-.07Zm-15.51,27.18Zm-1.6-37.1.65.37,1.14-2-1.36-.8.8-1.35-1.95-1.14-.79,1.34-1.36-.79-1.15,1.95.26.16a6,6,0,0,1,3.76,2.22Z" transform="translate(-750 -330)"/><path class="cls-2" d="M922.58,527.9c.91,3,2,6.55,2,6.85s2.93,3.37,4.41,5.1l1.22-.27.43-5.33c-.71-.54-5.23-4.09-8.11-6.35Zm-3.23,5.35a.38.38,0,0,0-.39-.39.38.38,0,0,0-.36.39.36.36,0,0,0,.36.35.37.37,0,0,0,.39-.35Zm-13-12.28-9.06-7.31-4.1-.62,1.74,3.92,8.85,7.41,2.57-3.4Zm5.31,13.67,4.45-2.52,1-1.79c0-.25,0-.65,0-1.23l-2.69-.68c-.65,1.05-2.95,4.83-2.95,4.83l-6,1.26-.46-2.23,2.66-.55,0,0,2.1-2.43-5.9-4.86-4.45,5.88,5,9.43c2.26-1.6,7.15-5.05,7.23-5.08Zm8.16-8.16,1.69-2.33,8.2,6.42-3.38-8.7-6.3-1.55a12.91,12.91,0,1,0-10.47,0l-2.34-.34-.77,1,6.22,4.89,2-2.3,1.72,1.46-1.06,1.23,4.17,1.06-.12,3.29a2.64,2.64,0,1,1-2.7,3.78l-3.8,2.13-8.13,5.73-.28,3.89-1.61,20.28h24.26l.55-18.23.17-6.38-5.18-6-2.82-9.39Zm-2.62-16.35a11.12,11.12,0,0,0,1.43-3.35,3.41,3.41,0,0,0-6.79,0h-4.11a7.52,7.52,0,0,1,15,0c0,1.94-1.55,4.69-2,5.48l-3.54-2.13Z" transform="translate(-750 -330)"/><path class="cls-2" d="M995.41,535.47c0,1.14,0,2.58.05,3.71,1.13,0,2.57,0,3.72,0,0-1.12,0-2.56,0-3.69-1.16,0-2.59,0-3.74,0Zm19-11.51,2.22,2.14,4.78-4.83-2.22-2.15-2.39-.14,1.29-1.36-1.74-1.71-5.89,6.4-.66-.63c-.89-.34-4.52-1.79-4.88-1.94l-6.9.24c-.21.07-4.09,1.13-5.19,1.44-.16,1.25-.3,2.57-.3,2.6l-2.4,16.14,0,3.91.24,22.69h24.41l-2-23.19-.42-5.84-6.49-.6-4.55-1.69.07,6-8.26.06-.07-8.23,6-.08-1.33-2.68,3.68-2.34.57-.35,2,1.05,6.43-6.52,1.6,1.6-5.89,6,1.52.78,1.52-.83,1.09,2-2.58,1.4-5.58-2.86c-.44.29-.81.53-1.42.9.38.76.7,1.4.89,1.82.71.25,4.58,1.69,4.81,1.75s3.57.36,6.26.61l3.44-.28-2.52-9.83-1.53-1.47,2.19-2.26.15,2.33ZM993,518.48a.66.66,0,0,1,.07.32l.21.15,4.44-1.21,7.41-.27.23,0,3.26,1.31a12.74,12.74,0,0,0,5.12-10.22,12.9,12.9,0,0,0-25.79,0c0,.35,0,.67.06,1l5,8.94Zm8.52-18.87a7.37,7.37,0,0,1,7.52,7.17c0,1.94-1.55,4.69-2,5.48l-3.55-2.13a10.55,10.55,0,0,0,1.45-3.35,3.41,3.41,0,0,0-6.79,0H994a7.37,7.37,0,0,1,7.53-7.17Zm-10.76,20.32-.19-1.18c-.77-1.35-2.84-5-4.27-7.63v11.71L983.47,530l.29,6.61,4.58.48c.7-4.76,2-13.44,2-13.41s.29-2.52.44-3.79Z" transform="translate(-750 -330)"/><path class="cls-2" d="M956.94,603.22v1.58h-1.57v2.25h1.57v1.59h2.27v-1.59h1.57V604.8h-1.57v-1.58Zm12.28,4-1.54,0,1.21-1.46-1.76-1.44-9.1,11-9.09-11-1.75,1.44,1.21,1.46-1.75,0-.14.12-2.24,1.83,4.33,5.23,2.39-1.94.28-1.73,5.3,6.39-4.63,5.59-8.18.8.93,9.73,9.76-.92-.79-8.15,4.38-5.28,4.38,5.28-.8,8.15,9.76.92.93-9.73-8.18-.79-4.63-5.6,5.31-6.39.27,1.73,2.38,1.94,4.34-5.23-2.38-1.95ZM951.46,625c.14,1.33.39,3.89.5,5.23l-5.22.5c-.13-1.35-.36-3.88-.51-5.22,1.35-.13,3.89-.39,5.23-.51Zm13.15,0,5.24.5c-.14,1.35-.4,3.88-.53,5.23l-5.22-.5.51-5.23Z" transform="translate(-750 -330)"/><path class="cls-2" d="M1035,469.59H882.27V570c0,38.44,35.44,70.91,77.39,70.91a81.64,81.64,0,0,0,53.81-20.7c15.2-13.63,23.59-31.47,23.59-50.21V469.59ZM1008.92,583.3v5.57H997.33V583.3H990.9v5.57H979.29V583.3h-6.44v5.57h-11.6V583.3h-6.43v5.57H943.21V583.3h-6.44v5.57H925.18V583.3h-6.43v5.57H907.13V583.3h-8.49v6.84h3.25v20.38c-9.66-11.33-15.49-25.43-15.49-40.51V473.72h146.53V570c0,16.09-6.63,31.48-18.75,43.82V590.14h3.25V583.3Zm-81.23,46.55c0-.14,0-.27,0-.4a33.17,33.17,0,0,1,3.6-15c5.1-10.06,15.15-16.92,26.77-16.92,12.14,0,22.6,7.55,27.45,18.44a33.35,33.35,0,0,1,2.88,13.52c0,.55,0,1.09,0,1.63a76.22,76.22,0,0,1-28.68,5.72,77.07,77.07,0,0,1-32-6.95Zm19.64-45.11h3.36v-5.56h14.68v5.56h3.37v-5.56h4.85V557.4l4.41-5.67v-9.3h-6.44V548h-4.7v-5.57h-6.45V548h-4.68v-5.57H949.3V548h-4.71v-5.57h-6.44v9.3l4.41,5.67v21.78h4.77v5.56Zm54.12,0h3.36v-5.56h9.37V570H989.76v9.17h11.69v5.56Zm-90.19,0h3.35v-5.56h11.7V570H901.89v9.17h9.37v5.56Z" transform="translate(-750 -330)"/><path class="cls-2" d="M754.1,539.66c0-113.34,92.22-205.56,205.56-205.56s205.56,92.22,205.56,205.56S1073,745.22,959.66,745.22,754.1,653,754.1,539.66Zm-4.1,0c0,115.61,94.06,209.67,209.66,209.67s209.67-94.06,209.67-209.67S1075.27,330,959.66,330,750,424.05,750,539.66Z" transform="translate(-750 -330)"/></svg>